# xmcd CD database file
#
# Track frame offsets:
#	150
#	24450
#	48503
#
# Disc length: 967 seconds
#
# Revision: 0
# Processed by: cddbd v1.5.1PL2 Copyright (c) Steve Scherf et al.
# Submitted via: CDex 1.40Beta9
#
DISCID=1d03c503
DTITLE=Plastic Tree - 空中ブランコ
DYEAR=2005
DGENRE=Rock
TTITLE0=空中ブランコ
TTITLE1=月の光をたよりに
TTITLE2=空中ブランコ -Instrumental-
EXTD=YEAR: 2005 ID3G: 17
EXTT0=
EXTT1=
EXTT2=
PLAYORDER=
